# Blender v2.91.2 OBJ File: 'untitled.blend'
# www.blender.org
mtllib tardis_2.mtl
o Cube
v 0.500000 1.500000 -0.500000
v 0.500000 -0.500000 -0.500000
v 0.500000 1.500000 0.500000
v 0.500000 -0.500000 0.500000
v -0.500000 1.500000 -0.500000
v -0.500000 -0.500000 -0.500000
v -0.500000 1.500000 0.500000
v -0.500000 -0.500000 0.500000
vt 0.501435 0.500752
vt 0.751688 0.500752
vt 0.751688 0.748184
vt 0.501435 0.748184
vt 0.507415 0.003192
vt 0.505141 0.497403
vt 0.242687 0.497403
vt 0.244321 0.003192
vt 0.753278 0.004522
vt 0.751422 0.499595
vt 0.498379 0.499595
vt 0.499617 0.004522
vt 0.751631 0.502939
vt 0.998249 0.502939
vt 0.998249 0.749557
vt 0.751631 0.749557
vt 1.003983 0.001232
vt 1.003370 0.497276
vt 0.752610 0.497276
vt 0.752610 0.001232
vt 0.248809 0.004137
vt 0.248203 0.499730
vt 0.000200 0.499730
vt 0.000200 0.004137
vn 0.0000 1.0000 0.0000
vn 0.0000 0.0000 1.0000
vn -1.0000 0.0000 0.0000
vn 0.0000 -1.0000 0.0000
vn 1.0000 0.0000 0.0000
vn 0.0000 0.0000 -1.0000
usemtl Material
s off
f 1/1/1 5/2/1 7/3/1 3/4/1
f 4/5/2 3/6/2 7/7/2 8/8/2
f 8/9/3 7/10/3 5/11/3 6/12/3
f 6/13/4 2/14/4 4/15/4 8/16/4
f 2/17/5 1/18/5 3/19/5 4/20/5
f 6/21/6 5/22/6 1/23/6 2/24/6
